<svg version="1.1" id="Layer_1" xmlns="http://www.w3.org/2000/svg" xmlns:xlink="http://www.w3.org/1999/xlink" x="0px" y="0px"
	 width="100%" viewBox="0 0 384 384" enable-background="new 0 0 384 384" xml:space="preserve">
<path fill="#000000" opacity="1.000000" stroke="none" 
	d="
M369.342224,314.000061 
	C369.356140,332.496704 369.376099,350.493347 369.380676,368.489960 
	C369.382660,376.245056 369.368195,376.260773 361.808014,376.261749 
	C310.817383,376.268372 259.826782,376.264374 208.836166,376.270477 
	C147.049164,376.277893 85.261963,376.230469 23.475500,376.419220 
	C18.517103,376.434357 18.636551,374.009277 18.638718,370.564453 
	C18.679071,306.409607 18.669464,242.254715 18.670677,178.099838 
	C18.671644,126.942558 18.626152,75.785141 18.782555,24.628336 
	C18.792692,21.312668 16.258352,17.411352 18.164585,15.169939 
	C20.364223,12.583532 24.050318,15.958618 27.323854,15.945010 
	C80.146584,15.725430 132.970474,15.756595 185.793976,15.828853 
	C188.818985,15.832990 191.296921,15.140885 193.449020,12.604852 
	C196.312988,15.873690 199.938965,15.777890 203.613129,15.777102 
	C257.269897,15.765581 310.926666,15.813026 364.583374,15.762025 
	C368.474274,15.758327 371.330505,15.746861 369.567261,21.097080 
	C368.820984,23.361597 369.344025,26.054913 369.343903,28.553333 
	C369.339355,123.535576 369.341064,218.517822 369.342224,314.000061 
M25.373661,28.312202 
	C25.360868,81.975670 25.384268,135.639206 25.262903,189.302429 
	C25.253723,193.361359 27.205360,194.059921 30.473427,193.995621 
	C32.086754,193.963882 33.633511,194.515976 33.459236,196.505768 
	C33.305645,198.259384 31.705032,198.415634 30.383154,198.285217 
	C26.359985,197.888245 25.266592,199.779099 25.277519,203.570847 
	C25.425444,254.900055 25.430763,306.229675 25.557735,357.558960 
	C25.577568,365.576630 29.945971,369.599640 38.075462,369.601776 
	C85.740219,369.614227 133.404984,369.618866 181.069733,369.619537 
	C189.959412,369.619659 189.970917,369.607971 191.655609,360.815613 
	C191.885117,359.617828 192.086868,358.350555 193.549103,358.294220 
	C195.528900,358.217987 195.372116,359.847870 195.428650,361.143585 
	C195.543686,363.780304 195.336319,366.450165 196.354935,369.229980 
	C249.766159,369.229980 303.158539,369.229980 356.933624,369.229980 
	C356.379242,364.956329 356.886780,361.859558 362.271606,364.308289 
	C362.428650,361.907623 362.669556,359.934875 362.670380,357.962006 
	C362.692230,306.797333 362.665192,255.632645 362.738800,204.468094 
	C362.744293,200.645355 362.369507,197.775543 357.506531,198.232712 
	C356.297485,198.346375 355.149384,197.778580 355.049500,196.309280 
	C354.948090,194.817505 356.059235,194.093048 357.251526,194.125290 
	C362.226807,194.259872 362.733826,191.237091 362.728882,187.260391 
	C362.664490,135.595871 362.695221,83.931244 362.671783,32.266666 
	C362.668976,26.052128 358.908722,22.372417 352.785095,22.371435 
	C309.120209,22.364441 265.455353,22.358875 221.790466,22.352621 
	C214.790787,22.351620 207.790039,22.421505 200.791824,22.319195 
	C196.955109,22.263103 195.289948,23.916769 195.518158,27.763550 
	C195.681732,30.520782 195.549973,33.295536 195.549973,36.253113 
	C191.758774,35.146751 191.758774,35.146751 191.695999,29.885056 
	C191.606735,22.404457 191.606735,22.367304 184.202789,22.365377 
	C134.538086,22.352465 84.873199,22.416529 35.209026,22.254906 
	C30.658461,22.240097 27.546574,23.525700 25.373661,28.312202 
z"/>
<path fill="#000000" opacity="1.000000" stroke="none" 
	d="
M198.478668,197.536682 
	C198.761749,199.440567 198.367554,200.501129 196.523499,200.485062 
	C194.246185,200.465210 191.968567,200.480316 189.131607,200.480316 
	C190.923721,197.313065 190.537033,194.703415 187.753693,192.453842 
	C186.318527,191.293900 186.674179,189.536499 188.220825,188.711868 
	C191.309174,187.065231 191.212311,184.511185 191.221268,181.537018 
	C191.230789,178.378098 190.612946,174.330261 196.882904,173.518738 
	C195.029297,179.634354 197.605728,185.630798 194.050049,191.004639 
	C194.566177,191.775772 195.200287,191.613647 195.820847,191.315079 
	C197.023682,190.736328 198.293900,189.939682 199.438629,191.218246 
	C200.611145,192.527863 199.384354,193.634048 198.906754,194.815552 
	C198.608734,195.552765 198.577286,196.397720 198.478668,197.536682 
z"/>
<path fill="#000000" opacity="1.000000" stroke="none" 
	d="
M178.233459,198.908752 
	C177.471298,198.897018 177.131744,198.926407 176.806168,198.872040 
	C174.768433,198.531693 171.693893,198.976944 171.887009,196.010529 
	C172.083618,192.990341 175.179672,193.996872 177.167358,193.847305 
	C179.152588,193.697906 181.164612,193.806488 183.159225,193.910522 
	C184.783157,193.995224 186.177017,194.610489 186.237717,196.502335 
	C186.304108,198.571991 184.714081,198.850845 183.159332,198.927353 
	C181.664276,199.000931 180.161743,198.922699 178.233459,198.908752 
z"/>
<path fill="#000000" opacity="1.000000" stroke="none" 
	d="
M177.869476,216.693756 
	C176.017181,218.865723 174.493225,220.848495 172.740875,222.603180 
	C171.509369,223.836334 169.844391,224.537949 168.341568,223.008774 
	C166.951935,221.594788 167.889206,220.213776 168.914627,219.067215 
	C170.683624,217.089218 172.528809,215.178619 174.366028,213.262726 
	C175.351425,212.235153 176.498444,211.538132 177.861893,212.541779 
	C179.418198,213.687363 179.181152,215.045944 177.869476,216.693756 
z"/>
<path fill="#000000" opacity="1.000000" stroke="none" 
	d="
M177.185272,175.438477 
	C177.225967,178.788025 175.293991,179.284729 173.382233,177.791260 
	C170.795120,175.770187 168.637817,173.174042 166.430817,170.704224 
	C165.608231,169.783691 165.583160,168.533829 166.633774,167.576904 
	C167.688477,166.616272 168.878906,166.807953 169.771149,167.677307 
	C172.260284,170.102646 174.638809,172.641479 177.185272,175.438477 
z"/>
<path fill="#000000" opacity="1.000000" stroke="none" 
	d="
M191.560791,214.536682 
	C191.456619,212.149734 191.290756,210.162399 191.242935,208.172241 
	C191.207764,206.708206 191.692291,205.493713 193.442184,205.477402 
	C194.770966,205.465012 195.780502,206.144119 195.810364,207.512360 
	C195.886353,210.995087 195.884003,214.483963 195.755646,217.964584 
	C195.700653,219.456146 194.532913,219.890198 193.232834,219.507965 
	C190.694290,218.761612 191.551483,216.669662 191.560791,214.536682 
z"/>
<path fill="#000000" opacity="1.000000" stroke="none" 
	d="
M216.326630,195.238007 
	C216.971527,197.914734 215.450928,198.627426 213.651962,198.660385 
	C210.666443,198.715103 207.674759,198.516281 204.687912,198.376419 
	C203.304642,198.311646 202.522583,197.511139 202.587921,196.119644 
	C202.653336,194.726807 203.584579,193.961075 204.890976,193.997025 
	C208.650314,194.100464 212.516815,192.986038 216.326630,195.238007 
z"/>
<path fill="#000000" opacity="1.000000" stroke="none" 
	d="
M219.684174,168.610229 
	C221.451691,169.372177 222.076096,170.499786 220.965668,171.812210 
	C218.841034,174.323364 216.573029,176.716934 214.295441,179.093063 
	C213.422333,180.003922 212.301483,180.290756 211.211517,179.356232 
	C210.000717,178.318069 209.821213,176.992676 210.925461,175.904404 
	C213.583725,173.284561 215.649979,169.960083 219.684174,168.610229 
z"/>
<path fill="#000000" opacity="1.000000" stroke="none" 
	d="
M240.466034,240.528473 
	C240.712448,244.345367 238.919113,244.568695 236.673065,242.793411 
	C234.625366,241.174927 232.934952,239.101425 231.106247,237.209946 
	C229.957504,236.021805 228.423965,234.692871 230.242538,233.102417 
	C231.883026,231.667709 233.316147,232.995560 234.500397,234.180618 
	C236.475708,236.157196 238.384567,238.200150 240.466034,240.528473 
z"/>
<path fill="#000000" opacity="1.000000" stroke="none" 
	d="
M114.979141,278.673462 
	C114.045364,283.255737 110.288467,285.425171 107.433380,288.261627 
	C106.119072,289.567383 104.486221,288.887726 104.131569,286.955261 
	C103.627663,284.209503 111.800621,277.760376 114.979141,278.673462 
z"/>
<path fill="#000000" opacity="1.000000" stroke="none" 
	d="
M131.933990,257.195770 
	C133.348175,255.974396 134.582306,254.934021 135.912781,256.664398 
	C136.744324,257.745880 136.375336,258.917419 135.538330,259.815216 
	C133.408981,262.099182 131.235458,264.344849 129.008133,266.533112 
	C128.098816,267.426483 126.964539,267.650665 125.954193,266.607605 
	C124.992500,265.614807 125.055710,264.444550 125.911919,263.494263 
	C127.781960,261.418732 129.765030,259.445068 131.933990,257.195770 
z"/>
<path fill="#000000" opacity="1.000000" stroke="none" 
	d="
M211.513489,210.963593 
	C214.040405,213.338882 216.306015,215.548492 218.498077,217.828812 
	C219.500839,218.871948 220.006653,220.162582 218.779129,221.353729 
	C217.470215,222.623886 216.321091,221.738556 215.330734,220.768250 
	C213.308319,218.786774 211.162399,216.897903 209.376907,214.717407 
	C207.564835,212.504440 208.381897,211.072372 211.513489,210.963593 
z"/>
<path fill="#000000" opacity="1.000000" stroke="none" 
	d="
M320.273254,322.655396 
	C321.793213,324.232239 323.097198,325.522522 324.324677,326.881897 
	C325.226318,327.880463 326.211945,329.013367 324.970184,330.352295 
	C323.740692,331.678009 322.514252,330.921234 321.492401,329.972260 
	C319.906860,328.499847 318.331665,327.003693 316.886719,325.396515 
	C315.753876,324.136505 313.415741,322.853912 315.194061,320.899384 
	C317.343628,318.536865 318.554779,321.358551 320.273254,322.655396 
z"/>
<path fill="#000000" opacity="1.000000" stroke="none" 
	d="
M154.279526,198.025635 
	C150.912277,198.250305 147.929626,198.358276 144.946121,198.391068 
	C143.369431,198.408417 141.825623,198.113647 141.674911,196.142883 
	C141.503677,193.903595 143.219330,193.938934 144.728394,193.929810 
	C147.382034,193.913788 150.045868,193.840073 152.687195,194.036148 
	C155.187836,194.221786 156.517960,195.306473 154.279526,198.025635 
z"/>
<path fill="#000000" opacity="1.000000" stroke="none" 
	d="
M234.625946,157.606873 
	C231.140137,157.699402 230.911621,156.021912 232.557587,153.975342 
	C234.412079,151.669479 236.613052,149.639084 238.698196,147.523239 
	C239.778976,146.426544 240.970352,146.210281 242.141037,147.421143 
	C243.181595,148.497421 242.807739,149.616501 241.954422,150.498535 
	C239.664780,152.865234 237.282806,155.142639 234.625946,157.606873 
z"/>
<path fill="#000000" opacity="1.000000" stroke="none" 
	d="
M258.233032,258.805237 
	C259.478455,261.010925 263.726410,262.278137 260.996338,264.875305 
	C258.725983,267.035126 257.175751,263.469788 255.508057,262.133698 
	C254.348083,261.204346 253.335739,260.064697 252.374786,258.920441 
	C251.441620,257.809235 250.069153,256.561096 251.724197,255.097397 
	C253.285141,253.716949 254.469666,254.984146 255.559357,256.031799 
	C256.398743,256.838806 257.182404,257.703735 258.233032,258.805237 
z"/>
<path fill="#000000" opacity="1.000000" stroke="none" 
	d="
M152.436661,242.330902 
	C151.491669,243.265594 150.814102,243.984390 150.088440,244.650833 
	C149.266693,245.405472 148.291214,245.567337 147.417053,244.848480 
	C146.350983,243.971832 146.302887,242.725159 147.148560,241.775131 
	C149.220551,239.447556 151.409378,237.220032 153.620728,235.022217 
	C154.611282,234.037750 155.819000,233.403748 157.029236,234.746429 
	C158.237564,236.087067 157.350922,237.196838 156.451431,238.189758 
	C155.238037,239.529236 153.942902,240.794662 152.436661,242.330902 
z"/>
<path fill="#000000" opacity="1.000000" stroke="none" 
	d="
M117.074821,198.355011 
	C115.632828,198.309525 114.640274,198.299500 113.651466,198.233353 
	C112.341583,198.145721 111.417755,197.515244 111.359467,196.131363 
	C111.296211,194.629578 112.405273,194.122528 113.629959,194.079391 
	C116.601234,193.974747 119.577660,193.943680 122.550468,193.987473 
	C123.930870,194.007812 125.292145,194.379776 125.261261,196.166397 
	C125.230568,197.941284 123.866623,198.223663 122.484116,198.286621 
	C120.833611,198.361801 119.178848,198.343384 117.074821,198.355011 
z"/>
<path fill="#000000" opacity="1.000000" stroke="none" 
	d="
M238.253845,193.948730 
	C240.682449,193.983261 242.667221,193.947830 244.638138,194.096252 
	C245.828400,194.185898 246.960007,194.665649 246.953964,196.153854 
	C246.948044,197.615448 245.902893,198.154312 244.658936,198.196686 
	C241.855682,198.292145 239.048508,198.315216 236.243393,198.296616 
	C234.753189,198.286743 232.904068,198.274307 232.777420,196.350311 
	C232.621140,193.976532 234.691559,194.122543 236.318970,193.986282 
	C236.811417,193.945038 237.308945,193.964554 238.253845,193.948730 
z"/>
<path fill="#000000" opacity="1.000000" stroke="none" 
	d="
M91.098679,86.985580 
	C92.049858,88.351952 92.259171,89.407593 91.024490,90.266418 
	C90.085487,90.919579 89.052643,90.764015 88.305183,90.022835 
	C86.084518,87.820808 83.923508,85.556267 81.799126,83.260681 
	C80.956947,82.350632 80.556053,81.266525 81.666725,80.223221 
	C82.942322,79.024994 84.100632,79.570641 85.107582,80.602097 
	C87.063896,82.606018 88.967430,84.661461 91.098679,86.985580 
z"/>
<path fill="#000000" opacity="1.000000" stroke="none" 
	d="
M320.631989,63.581406 
	C321.558197,62.584541 322.200256,61.823380 322.917572,61.141411 
	C324.198273,59.923859 325.718445,58.957108 327.216156,60.542519 
	C328.673340,62.085083 327.127838,63.266518 326.184387,64.317390 
	C324.750732,65.914284 323.227661,67.436836 321.669952,68.914452 
	C320.475250,70.047775 319.092102,71.490051 317.455322,69.826981 
	C316.040588,68.389519 317.327026,67.101883 318.302032,65.978752 
	C318.950745,65.231468 319.685486,64.558830 320.631989,63.581406 
z"/>
<path fill="#000000" opacity="1.000000" stroke="none" 
	d="
M264.345215,194.696350 
	C267.929169,193.613953 271.256348,193.939926 274.566376,194.026276 
	C275.950958,194.062378 277.321198,194.415985 277.429016,196.145477 
	C277.545715,198.017502 276.112335,198.254883 274.740234,198.277206 
	C271.917023,198.323135 269.088654,198.344696 266.269073,198.222534 
	C264.224274,198.133926 263.156158,197.144913 264.345215,194.696350 
z"/>
<path fill="#000000" opacity="1.000000" stroke="none" 
	d="
M305.560425,198.210419 
	C302.311188,198.269089 299.500549,198.319443 296.692535,198.254196 
	C295.283051,198.221451 293.972198,197.694290 293.881165,196.060181 
	C293.777588,194.200272 295.299255,194.023361 296.628479,194.001999 
	C299.600800,193.954239 302.649567,193.634537 305.528351,194.170776 
	C308.579407,194.739120 309.091858,196.432495 305.560425,198.210419 
z"/>
<path fill="#000000" opacity="1.000000" stroke="none" 
	d="
M301.456573,309.052124 
	C298.935944,306.681305 296.666595,304.487366 294.482117,302.211975 
	C293.494202,301.182922 292.966553,299.917664 294.207092,298.701813 
	C295.495209,297.439362 296.703247,298.191742 297.677094,299.169342 
	C299.668213,301.168121 301.744995,303.123871 303.444885,305.357361 
	C304.875610,307.237183 305.201538,309.203705 301.456573,309.052124 
z"/>
<path fill="#000000" opacity="1.000000" stroke="none" 
	d="
M41.586018,36.323948 
	C43.994038,38.608829 46.132034,40.683136 48.179249,42.843472 
	C49.095226,43.810062 50.007221,44.997860 48.813782,46.320671 
	C47.581169,47.686897 46.412327,46.872459 45.413818,45.892715 
	C43.407570,43.924175 41.297527,42.034214 39.504250,39.883427 
	C37.687920,37.704983 38.309017,36.265629 41.586018,36.323948 
z"/>
<path fill="#000000" opacity="1.000000" stroke="none" 
	d="
M80.776474,196.168091 
	C84.650429,192.303009 89.180214,194.084839 93.390343,194.451126 
	C95.213181,194.609741 95.228722,196.610611 93.733368,197.817947 
	C92.074097,199.157562 82.853523,198.168762 80.776474,196.168091 
z"/>
<path fill="#000000" opacity="1.000000" stroke="none" 
	d="
M153.262299,156.078049 
	C149.987076,154.288925 147.979294,151.602005 145.643753,149.273209 
	C144.780273,148.412262 144.183258,147.362366 145.117828,146.201523 
	C145.789062,145.367767 146.800781,144.887817 147.747803,145.559540 
	C150.866028,147.771332 153.683243,150.376572 155.624039,153.670441 
	C156.559540,155.258118 155.160126,156.000549 153.262299,156.078049 
z"/>
<path fill="#000000" opacity="1.000000" stroke="none" 
	d="
M104.730621,107.243317 
	C103.586868,105.486832 100.622177,104.292130 103.103905,102.185120 
	C105.063423,100.521477 106.320541,102.774445 107.577843,103.958397 
	C108.904022,105.207214 110.221008,106.481651 111.400620,107.865417 
	C112.413925,109.054100 114.142677,110.368927 112.313461,112.045181 
	C110.765366,113.463821 109.576736,111.955597 108.505585,110.997528 
	C107.272369,109.894485 106.150215,108.667252 104.730621,107.243317 
z"/>
<path fill="#000000" opacity="1.000000" stroke="none" 
	d="
M332.010315,198.337479 
	C329.279236,197.726776 325.153931,199.917252 325.053711,196.307495 
	C324.953125,192.685318 329.103485,194.485260 331.411346,193.975113 
	C331.724426,193.905884 332.082886,193.894196 332.390594,193.972610 
	C334.493683,194.508499 338.291534,192.658661 338.147430,196.416351 
	C338.024689,199.617569 334.454926,197.788712 332.010315,198.337479 
z"/>
<path fill="#000000" opacity="1.000000" stroke="none" 
	d="
M344.227051,39.373337 
	C345.676727,37.882103 347.132446,36.657021 348.651489,38.294312 
	C350.324524,40.097645 348.340881,41.208759 347.286102,42.327003 
	C345.480804,44.240952 343.624817,46.111019 341.717987,47.923626 
	C340.811676,48.785137 339.702179,49.112713 338.665649,48.050468 
	C337.606781,46.965328 338.087158,45.942631 338.934143,45.020767 
	C340.603821,43.203419 342.303436,41.413559 344.227051,39.373337 
z"/>
<path fill="#000000" opacity="1.000000" stroke="none" 
	d="
M43.772446,347.749573 
	C46.239849,346.386780 47.424927,341.289154 50.394268,344.257660 
	C52.762173,346.624908 48.463974,348.385773 47.135155,350.419495 
	C46.957489,350.691437 46.710632,350.947021 46.439644,351.124329 
	C44.723942,352.246796 43.503860,356.052155 41.036297,353.488098 
	C38.678577,351.038147 42.457752,349.788239 43.772446,347.749573 
z"/>
<path fill="#000000" opacity="1.000000" stroke="none" 
	d="
M87.148727,303.257019 
	C88.207191,302.189697 89.003075,301.353943 89.842506,300.564514 
	C90.770538,299.691681 91.836990,299.294342 92.917686,300.236267 
	C94.269653,301.414612 93.665108,302.636566 92.710632,303.667297 
	C90.921104,305.599792 89.086716,307.495148 87.191330,309.323364 
	C86.271370,310.210693 85.190475,311.368561 83.798134,310.175262 
	C82.231697,308.832794 83.105026,307.526062 84.166626,306.357605 
	C85.052002,305.383057 85.990410,304.456665 87.148727,303.257019 
z"/>
<path fill="#000000" opacity="1.000000" stroke="none" 
	d="
M127.031357,129.947174 
	C126.204674,129.109695 125.591888,128.545914 125.049316,127.921173 
	C123.947739,126.652733 122.570488,125.225533 124.392677,123.700134 
	C125.921875,122.420029 127.165184,123.779663 128.208862,124.834633 
	C129.840042,126.483444 131.408264,128.195648 132.974030,129.907654 
	C133.982224,131.010025 135.306198,132.275406 133.927689,133.740662 
	C132.560501,135.193878 131.201431,134.091995 130.078659,133.018860 
	C129.120193,132.102722 128.209091,131.137054 127.031357,129.947174 
z"/>
<path fill="#000000" opacity="1.000000" stroke="none" 
	d="
M284.595306,106.445976 
	C282.340271,108.904137 280.300385,111.077049 278.205353,113.195412 
	C277.323883,114.086716 276.238556,114.526733 275.107208,113.623489 
	C273.924927,112.679543 274.186188,111.502220 275.051758,110.588608 
	C277.212860,108.307518 279.280640,105.857971 281.774689,103.997162 
	C283.853699,102.446022 285.185883,103.429756 284.595306,106.445976 
z"/>
<path fill="#000000" opacity="1.000000" stroke="none" 
	d="
M192.414093,157.727051 
	C191.304871,154.184784 191.748367,150.867401 191.671112,147.578644 
	C191.639221,146.221222 191.868607,144.758072 193.637009,144.682480 
	C195.808136,144.589645 195.813431,146.298935 195.828964,147.799149 
	C195.856262,150.435623 195.842697,153.074509 195.757370,155.709503 
	C195.694031,157.665314 195.043045,159.019058 192.414093,157.727051 
z"/>
<path fill="#000000" opacity="1.000000" stroke="none" 
	d="
M52.075871,194.396622 
	C55.420536,194.205963 58.388241,194.069427 61.352558,194.122452 
	C62.715797,194.146820 64.091698,194.638855 63.946545,196.409973 
	C63.827908,197.857544 62.609135,198.210632 61.408211,198.222885 
	C58.604004,198.251526 55.776833,198.382172 53.000774,198.083206 
	C50.723007,197.837921 49.668388,196.616180 52.075871,194.396622 
z"/>
<path fill="#000000" opacity="1.000000" stroke="none" 
	d="
M263.291443,128.191956 
	C261.094849,130.704453 259.148987,132.962570 257.111603,135.134827 
	C256.175140,136.133270 255.016037,136.955933 253.699356,135.666656 
	C252.473587,134.466446 252.922318,133.251877 253.926193,132.178421 
	C255.848526,130.122787 257.668579,127.937912 259.797455,126.118362 
	C261.968170,124.263046 263.677856,124.381363 263.291443,128.191956 
z"/>
<path fill="#000000" opacity="1.000000" stroke="none" 
	d="
M300.052795,90.835136 
	C298.654236,92.052460 297.364502,93.196159 296.013519,91.617348 
	C294.919403,90.338730 295.918793,89.168022 296.847382,88.173096 
	C298.644165,86.247940 300.421539,84.303436 302.262360,82.421165 
	C303.229462,81.432327 304.377686,80.665710 305.695374,81.858276 
	C307.010193,83.048218 306.437073,84.232071 305.446808,85.279259 
	C303.749908,87.073685 302.010254,88.827736 300.052795,90.835136 
z"/>
<path fill="#000000" opacity="1.000000" stroke="none" 
	d="
M279.255005,286.476074 
	C277.060822,284.258392 275.111816,282.260071 273.184326,280.241211 
	C272.356445,279.374084 271.593842,278.397583 272.697723,277.271149 
	C273.629761,276.320068 274.869141,276.254272 275.805664,277.144684 
	C278.183350,279.405304 280.466888,281.767639 282.727722,284.146637 
	C283.313446,284.762970 283.489929,285.642578 282.923126,286.412598 
	C281.914856,287.782379 280.726959,287.580872 279.255005,286.476074 
z"/>
<path fill="#000000" opacity="1.000000" stroke="none" 
	d="
M68.930695,322.185944 
	C70.332611,321.193787 71.380226,321.243225 72.102600,322.504150 
	C72.678070,323.508575 72.227852,324.411591 71.517395,325.183716 
	C69.510399,327.365051 67.515923,329.558838 65.464767,331.698090 
	C64.631920,332.566711 63.530289,333.266235 62.434727,332.283356 
	C61.251072,331.221436 61.454407,329.853088 62.465630,328.766418 
	C64.484497,326.596985 66.601028,324.518433 68.930695,322.185944 
z"/>
<path fill="#000000" opacity="1.000000" stroke="none" 
	d="
M195.295837,248.382507 
	C193.516281,251.058945 192.142166,249.955780 191.918625,248.011185 
	C191.543350,244.746521 191.728271,241.407578 191.822998,238.104065 
	C191.857239,236.910095 192.495621,235.719208 193.882736,235.711578 
	C195.757828,235.701263 195.792816,237.244202 195.759979,238.574860 
	C195.682526,241.713623 195.513214,244.850113 195.295837,248.382507 
z"/>
<path fill="#000000" opacity="1.000000" stroke="none" 
	d="
M340.066772,348.927368 
	C338.624115,346.740814 334.568787,345.164459 336.678619,342.955658 
	C339.411560,340.094604 340.692078,344.689026 342.722046,345.818573 
	C342.860626,345.895660 342.990479,346.027588 343.070160,346.165436 
	C344.243378,348.195221 348.651978,349.661041 345.890839,352.300598 
	C343.400238,354.681549 342.229492,350.312317 340.066772,348.927368 
z"/>
<path fill="#000000" opacity="1.000000" stroke="none" 
	d="
M70.211273,65.742332 
	C70.709396,69.249016 69.303116,69.886314 66.999542,67.968056 
	C64.839142,66.169014 63.004444,63.969231 61.093742,61.884102 
	C60.177345,60.884048 59.268700,59.656639 60.716228,58.456039 
	C62.111591,57.298706 63.219902,58.401138 64.153297,59.330296 
	C66.156685,61.324577 68.080475,63.398830 70.211273,65.742332 
z"/>
<path fill="#000000" opacity="1.000000" stroke="none" 
	d="
M194.474426,297.480286 
	C195.880280,301.363220 195.667496,307.478485 194.361969,311.014099 
	C194.038605,311.039886 193.541336,311.209991 193.416962,311.063507 
	C190.626297,307.776093 191.068604,299.577515 194.474426,297.480286 
z"/>
<path fill="#000000" opacity="1.000000" stroke="none" 
	d="
M195.317993,126.778610 
	C194.559402,128.194427 193.632538,128.334747 192.753693,127.593712 
	C191.464111,126.506332 191.176483,116.395515 192.403702,115.269356 
	C192.820770,114.886627 193.599457,114.608841 194.137238,114.705246 
	C195.368134,114.925888 195.405914,116.044243 195.411240,117.033493 
	C195.428009,120.153389 195.408752,123.273476 195.317993,126.778610 
z"/>
<path fill="#000000" opacity="1.000000" stroke="none" 
	d="
M194.932007,267.544159 
	C195.281616,271.189148 195.420120,274.508240 195.497849,277.828766 
	C195.521912,278.856079 195.312546,279.933136 194.035660,280.053162 
	C192.895523,280.160309 192.020096,279.466675 191.989426,278.343231 
	C191.898926,275.028381 191.827225,271.700653 192.033279,268.395752 
	C192.122879,266.958679 193.388809,266.681030 194.932007,267.544159 
z"/>
<path fill="#000000" opacity="1.000000" stroke="none" 
	d="
M191.739868,334.067810 
	C191.758240,332.613068 191.742264,331.613678 191.803680,330.619110 
	C191.891663,329.194061 192.280350,327.798523 194.044556,327.997986 
	C195.604752,328.174408 195.542038,329.654266 195.413605,330.765778 
	C195.026108,334.119171 196.256866,337.666901 194.337692,341.116394 
	C190.502960,339.878662 192.196411,336.775269 191.739868,334.067810 
z"/>
<path fill="#000000" opacity="1.000000" stroke="none" 
	d="
M191.759964,87.369965 
	C191.935898,85.385628 192.106552,83.851219 194.927994,84.065620 
	C195.926514,88.253769 195.398041,92.504097 194.915848,97.848228 
	C190.067398,94.850288 192.450073,90.860435 191.759964,87.369965 
z"/>
<path fill="#000000" opacity="1.000000" stroke="none" 
	d="
M191.746124,63.532616 
	C192.209549,60.043522 190.523056,56.526199 194.137527,53.250381 
	C196.203033,58.208252 195.318130,62.577614 195.094421,66.859673 
	C191.979416,67.471451 191.912964,65.678574 191.746124,63.532616 
z"/>
<path fill="#000000" opacity="1.000000" stroke="none" 
	d="
M183.516632,185.648651 
	C180.992737,186.272156 179.550888,185.466980 179.796921,183.111084 
	C179.952271,181.623611 181.376129,180.889008 182.761917,181.360046 
	C184.950470,182.103943 185.435333,183.587921 183.516632,185.648651 
z"/>
<path fill="#000000" opacity="1.000000" stroke="none" 
	d="
M192.691040,164.842377 
	C195.725357,163.576569 196.193115,165.209381 196.028015,167.327805 
	C195.928497,168.604599 195.117737,169.655441 193.748917,169.317703 
	C191.232117,168.696747 191.458206,166.955322 192.691040,164.842377 
z"/>
<path fill="#000000" opacity="1.000000" stroke="none" 
	d="
M207.321442,185.711472 
	C206.074539,187.756424 204.695084,188.111786 203.377182,186.320068 
	C202.424393,185.024719 202.985657,183.643723 204.315918,183.080811 
	C206.393509,182.201645 207.295410,183.409653 207.321442,185.711472 
z"/>
<path fill="#000000" opacity="1.000000" stroke="none" 
	d="
M141.123520,252.777496 
	C139.056015,251.673660 138.478271,250.327255 140.201248,248.879303 
	C141.186249,248.051559 142.550110,248.331390 143.248978,249.335114 
	C144.684113,251.396332 143.073593,252.165176 141.123520,252.777496 
z"/>
</svg>